<svg xmlns="http://www.w3.org/2000/svg" version="1.1" xmlns:xlink="http://www.w3.org/1999/xlink" xmlns:svgjs="http://svgjs.dev/svgjs" width="1500" height="325" viewBox="0 0 1500 325"><g transform="matrix(1,0,0,1,-0.9090909090911055,-0.22016120596993005)"><svg viewBox="0 0 396 86" data-background-color="#000000" preserveAspectRatio="xMidYMid meet" height="325" width="1500" xmlns="http://www.w3.org/2000/svg" xmlns:xlink="http://www.w3.org/1999/xlink"><g id="tight-bounds" transform="matrix(1,0,0,1,0.24000000000003752,0.05825804219512065)"><svg viewBox="0 0 395.5199999999999 85.88348391560974" height="85.88348391560974" width="395.5199999999999"><g><svg viewBox="0 0 403.9385176097475 87.7114866" height="85.88348391560974" width="395.5199999999999"><g><svg viewBox="0 0 403.9385176097475 87.7114866" height="87.7114866" width="403.9385176097475"><g id="textblocktransform"><svg viewBox="0 0 403.9385176097475 87.7114866" height="87.7114866" width="403.9385176097475" id="textblock"><g><svg viewBox="0 0 403.9385176097475 57.51989999999999" height="57.51989999999999" width="403.9385176097475"><g><svg><g></g><g></g></svg></g><g><svg><g><svg></svg></g><g></g></svg></g><g id="text-0"><svg viewBox="0 0 403.9385176097475 57.51989999999999" height="57.51989999999999" width="403.9385176097475"><g transform="matrix(1,0,0,1,0,11.084949999999996)"><svg width="152.65" viewBox="4 -34.8 152.64 35.349999999999994" height="35.35" data-palette-color="#89939e"><path d="M4-34.5L14.85-34.5Q19.65-34.5 22.5-31.78 25.35-29.05 25.35-24.3 25.35-19.55 21.75-16.18 18.15-12.8 12.95-12.8L12.95-12.8 10.1-12.8 10.7 0 4 0 4.6-12.15 4-34.5ZM13.05-29.45L13.05-29.45 10.6-29.45 10.25-17.65 13.65-17.65Q16.15-17.65 17.53-19.3 18.9-20.95 18.9-24L18.9-24Q18.9-29.45 13.05-29.45ZM56.85-0.85L49.65 0.25 47.2-9.5 35.25-9.5 32.6 0 26.2-0.5 30.6-12.65 37.3-34.15 46.25-34.8 52.7-13.4 56.85-0.85ZM45.7-14.8L41.75-28.3 41.1-28.3 36.8-14.8 45.7-14.8ZM81.94-33.85L88.05-34.6 87.39-13 87.94-1.1 82.05 0.15 67.14-23.95 67.14-13 67.84 0 61.59 0 62.2-12.15 61.59-34.35 67.59-34.65 82.44-10.2 81.94-33.85ZM106.29 0.55L106.29 0.55Q102.74 0.55 96.04 0L96.04 0 96.64-12.15 96.04-34.5 109.39-34.5Q116.14-34.5 119.94-30.45 123.74-26.4 123.74-19.2L123.74-19.2Q123.74-10.1 119.04-4.78 114.34 0.55 106.29 0.55ZM107.59-29.1L107.59-29.1Q104.29-29.1 102.94-29.05L102.94-29.05 102.44-13 102.79-4.9Q106.99-4.6 108.44-4.6L108.44-4.6Q112.39-4.6 114.67-7.8 116.94-11 116.94-17.1 116.94-23.2 114.72-26.15 112.49-29.1 107.59-29.1ZM156.64-0.85L149.44 0.25 146.99-9.5 135.04-9.5 132.39 0 125.99-0.5 130.39-12.65 137.09-34.15 146.04-34.8 152.49-13.4 156.64-0.85ZM145.49-14.8L141.54-28.3 140.89-28.3 136.59-14.8 145.49-14.8Z" opacity="1" transform="matrix(1,0,0,1,0,0)" fill="#89939e" class="undefined-yy-0"></path></svg></g><g><svg xmlns="http://www.w3.org/2000/svg" xmlns:xlink="http://www.w3.org/1999/xlink" version="1.1" x="166.2301" y="0" viewBox="5.045 10.094 89.91 79.774" enable-background="new 0 0 100 100" xml:space="preserve" height="57.51989999999999" width="64.82831760974751" class="icon-cg-0" data-fill-palette-color="accent" id="cg-0"><polygon points="5.957,65.431 9.583,65.117 12.412,66.096 10.445,67.77 7.682,67.267 " fill="#dedede" data-fill-palette-color="accent"></polygon><polygon points="12.785,69.029 16.153,66.874 16.806,66.874 15.383,68.481 14.88,69.174 13.803,69.183 " fill="#dedede" data-fill-palette-color="accent"></polygon><polygon points="24.883,45.106 26.892,42.846 26.327,40.398 21.682,35.752 17.538,35.25 16.554,37.573 17.35,40.179 20.05,42.407   " fill="#dedede" data-fill-palette-color="accent"></polygon><polygon points="13.204,52.368 11.867,54.294 11.867,56.429 15.173,60.236 17.224,60.528 17.81,58.646 16.554,54.963 14.88,52.955   " fill="#dedede" data-fill-palette-color="accent"></polygon><polygon points="89.583,57.386 89.582,57.384 94.955,45.875 91.219,27.219 84.708,22.28 90.399,27.784 93.245,45.278 81.652,50   70.771,61.077 65.745,60.622 61.574,59.226 65.247,61.392 69.739,62.398 72.425,69.234 72.182,73.613 66,79.975 65.231,83.913   82.829,83.913 85.932,79.542 85.741,78.04 91.945,66.676 " fill="#dedede" data-fill-palette-color="accent"></polygon><polygon points="61.797,22.402 53.719,14.324 49.534,12.408 53.82,11.105 65.498,12.11 53.563,10.094 38.764,14.269 32.518,19.622   39.13,15.186 43.023,14.224 46.479,19.241 46.166,27.152 36.522,50.706 35.136,56.448 35.95,63.488 25.754,79.47 18.785,84.84   21.533,89.868 31.617,89.868 39.4,84.426 48.252,78.398 53.279,70.924 56.218,59.1 56.391,58.462 56.834,56.834 57.337,54.95   66.024,43.202 66.735,31.986 " fill="#dedede" data-fill-palette-color="accent"></polygon><polygon points="31.848,47.674 33.041,51.912 33.115,55.878 30.896,60.188 25.884,64.404 19.543,66.25 16.554,68.527 13.806,68.931   11.842,68.901 10.571,67.538 7.809,67.035 6.198,65.31 8.84,54.956 7.333,50.499 9.816,37.95 11.229,34.968 13.015,33.522   18.423,32.882 24.284,34.176 28.615,37.3 30.31,40.179 29.086,36.766 24.738,33.502 19.072,31.823 26.19,24.845 17.409,31.571   12.704,32.488 11.135,33.35 8.638,32.875 5.045,31.217 5.045,34.953 8.16,39.967 6.165,50.66 7.923,54.985 5.651,65.458 7.555,67.5   10.317,68.002 11.621,69.4 13.828,69.432 16.745,69.144 19.646,67.251 26.509,65.741 31.894,60.933 34.022,56.046 33.633,51.81 " fill="#dedede" data-fill-palette-color="accent"></polygon></svg></g><g transform="matrix(1,0,0,1,244.63851760974748,10.88495)"><svg width="159.3" viewBox="0.65 -35 159.29 35.55" height="35.55" data-palette-color="#89939e"><path d="M0.65-4.55L4.55-9.95Q8.8-5.7 13.05-5.7L13.05-5.7Q15.25-5.7 16.57-6.73 17.9-7.75 17.9-9.38 17.9-11 16.3-12.13 14.7-13.25 12.43-14.1 10.15-14.95 7.9-16.03 5.65-17.1 4.05-19.1 2.45-21.1 2.45-23.95L2.45-23.95Q2.45-28.45 6.2-31.73 9.95-35 15.1-35L15.1-35Q17.45-35 19.65-34.5 21.85-34 23.9-33.05L23.9-33.05 20.5-25.75Q19.1-26.85 16.68-27.78 14.25-28.7 12.43-28.7 10.6-28.7 9.47-27.83 8.35-26.95 8.35-25.5 8.35-24.05 9.95-22.93 11.55-21.8 13.83-20.95 16.1-20.1 18.38-19.07 20.65-18.05 22.25-16.05 23.85-14.05 23.85-11.2L23.85-11.2Q23.85-6.5 20.1-2.98 16.35 0.55 11.35 0.55L11.35 0.55Q7.6 0.55 4.7-1.25L4.7-1.25Q2.15-2.8 1.1-4L1.1-4 0.65-4.55ZM34-29.45L25.15-28.75 25.7-34.5 49.45-34.5 48.9-28.75 40.2-29.5 40-13 40.6 0 33.6 0 34.2-12.15 34-29.45ZM67.45-35L67.45-35Q73.35-35 77.17-30.5 81-26 81-19.05L81-19.05Q81-10.25 76.45-4.85 71.9 0.55 64.5 0.55L64.5 0.55Q58.75 0.55 54.85-4.08 50.95-8.7 50.95-15.5L50.95-15.5Q50.95-24 55.6-29.5 60.25-35 67.45-35ZM74.2-16.25L74.2-16.25Q74.2-28.9 65.9-28.9L65.9-28.9Q62.1-28.9 59.92-26.08 57.75-23.25 57.75-17.63 57.75-12 60.07-8.38 62.4-4.75 66.22-4.75 70.05-4.75 72.12-7.83 74.2-10.9 74.2-16.25ZM95.44-13.3L95.44-13.3 92.59-13.3 92.59-13 93.19 0 86.49 0 87.09-12.15 86.49-34.5 97.34-34.5Q102.14-34.5 104.99-31.9 107.84-29.3 107.84-25L107.84-25Q107.84-21.75 106.17-19.07 104.49-16.4 101.64-14.85L101.64-14.85 110.34-2.55 104.29 0.55 96.49-13.35Q96.14-13.3 95.44-13.3ZM95.54-29.45L95.54-29.45 93.09-29.45 92.74-18.15 96.14-18.15Q98.64-18.15 100.02-19.8 101.39-21.45 101.39-24.5L101.39-24.5Q101.39-29.45 95.54-29.45ZM133.74 0L115.44 0 116.04-12.15 115.44-34.5 134.19-34.5 133.64-29.15 122.39-29.15 122.09-20.3 132.09-20.3 131.54-15 121.89-15 121.84-13 122.19-5.3 134.29-5.3 133.74 0ZM136.69-4.55L140.59-9.95Q144.84-5.7 149.09-5.7L149.09-5.7Q151.29-5.7 152.61-6.73 153.94-7.75 153.94-9.38 153.94-11 152.34-12.13 150.74-13.25 148.46-14.1 146.19-14.95 143.94-16.03 141.69-17.1 140.09-19.1 138.49-21.1 138.49-23.95L138.49-23.95Q138.49-28.45 142.24-31.73 145.99-35 151.14-35L151.14-35Q153.49-35 155.69-34.5 157.89-34 159.94-33.05L159.94-33.05 156.54-25.75Q155.14-26.85 152.71-27.78 150.29-28.7 148.46-28.7 146.64-28.7 145.51-27.83 144.39-26.95 144.39-25.5 144.39-24.05 145.99-22.93 147.59-21.8 149.86-20.95 152.14-20.1 154.41-19.07 156.69-18.05 158.29-16.05 159.89-14.05 159.89-11.2L159.89-11.2Q159.89-6.5 156.14-2.98 152.39 0.55 147.39 0.55L147.39 0.55Q143.64 0.55 140.74-1.25L140.74-1.25Q138.19-2.8 137.14-4L137.14-4 136.69-4.55Z" opacity="1" transform="matrix(1,0,0,1,0,0)" fill="#89939e" class="undefined-yy-1"></path></svg></g></svg></g></svg></g><g transform="matrix(1,0,0,1,0,65.86518659999999)"><svg viewBox="0 0 403.9385176097475 21.8463" height="21.8463" width="403.9385176097475"><g transform="matrix(1,0,0,1,0,0)"><svg width="403.9385176097475" viewBox="4 -35.01 832.42 45.019999999999996" height="21.8463" data-palette-color="#dedede"><path d="M28.71 0L25.56 0 25.56-24 25.34-22.51 17.21 0 15.55 0 7.35-22.51 7.15-24 7.15 0 4 0 4-35.01 5.64-35.01 16.26-6.3 16.36-5 16.46-6.3 27.05-35.01 28.71-35.01 28.71 0ZM82.61-6.86L82.61-6.86Q82.61-5.35 82.03-4 81.46-2.66 80.46-1.66 79.46-0.66 78.12-0.09 76.77 0.49 75.26 0.49L75.26 0.49 73.26 0.49Q71.74 0.49 70.4-0.09 69.06-0.66 68.06-1.66 67.06-2.66 66.48-4 65.91-5.35 65.91-6.86L65.91-6.86 65.91-18.14Q65.91-19.65 66.48-21 67.06-22.34 68.06-23.34 69.06-24.34 70.4-24.91 71.74-25.49 73.26-25.49L73.26-25.49 75.26-25.49Q76.77-25.49 78.12-24.91 79.46-24.34 80.46-23.34 81.46-22.34 82.03-21 82.61-19.65 82.61-18.14L82.61-18.14 82.61-6.86ZM79.6-6.69L79.6-18.31Q79.6-19.21 79.26-20.01 78.92-20.8 78.33-21.39 77.75-21.97 76.96-22.31 76.16-22.66 75.26-22.66L75.26-22.66 73.26-22.66Q72.35-22.66 71.56-22.31 70.77-21.97 70.18-21.39 69.59-20.8 69.25-20.01 68.91-19.21 68.91-18.31L68.91-18.31 68.91-6.69Q68.91-5.79 69.25-4.99 69.59-4.2 70.18-3.61 70.77-3.03 71.56-2.69 72.35-2.34 73.26-2.34L73.26-2.34 75.26-2.34Q76.16-2.34 76.96-2.69 77.75-3.03 78.33-3.61 78.92-4.2 79.26-4.99 79.6-5.79 79.6-6.69L79.6-6.69ZM129.67-22.14L126.67-22.14Q125.76-22.14 124.97-21.8 124.17-21.46 123.59-20.87 123-20.29 122.66-19.49 122.32-18.7 122.32-17.8L122.32-17.8 122.32 0 119.32 0 119.32-25 120.32-25 121.95-22.46Q122.98-23.85 124.53-24.67 126.08-25.49 127.91-25.49L127.91-25.49 129.67-25.49 129.67-22.14ZM181.07-6.86L181.07-6.86Q181.07-5.35 180.5-4 179.93-2.66 178.93-1.66 177.92-0.66 176.58-0.09 175.24 0.49 173.73 0.49L173.73 0.49 171.72 0.49Q170.21 0.49 168.87-0.09 167.52-0.66 166.52-1.66 165.52-2.66 164.95-4 164.37-5.35 164.37-6.86L164.37-6.86 164.37-18.14Q164.37-19.65 164.95-21 165.52-22.34 166.52-23.34 167.52-24.34 168.87-24.91 170.21-25.49 171.72-25.49L171.72-25.49 173.73-25.49Q175.24-25.49 176.58-24.91 177.92-24.34 178.93-23.34 179.93-22.34 180.5-21 181.07-19.65 181.07-18.14L181.07-18.14 181.07-12.26 167.38-12.26 167.38-6.69Q167.38-5.79 167.72-4.99 168.06-4.2 168.65-3.61 169.23-3.03 170.03-2.69 170.82-2.34 171.72-2.34L171.72-2.34 173.73-2.34Q174.63-2.34 175.42-2.69 176.22-3.03 176.8-3.61 177.39-4.2 177.73-4.99 178.07-5.79 178.07-6.69L178.07-6.69 178.07-8.35 181.07-7.86 181.07-6.86ZM178.07-14.6L178.07-18.31Q178.07-19.21 177.73-20.01 177.39-20.8 176.8-21.39 176.22-21.97 175.42-22.31 174.63-22.66 173.73-22.66L173.73-22.66 171.72-22.66Q170.82-22.66 170.03-22.31 169.23-21.97 168.65-21.39 168.06-20.8 167.72-20.01 167.38-19.21 167.38-18.31L167.38-18.31 167.38-14.6 178.07-14.6ZM271.83 0L269.09 0Q267.72 0 266.52-0.51 265.31-1.03 264.42-1.93 263.53-2.83 263-4.03 262.48-5.22 262.48-6.59L262.48-6.59 262.48-22.14 257.98-22.14 257.98-25 262.48-25 262.48-31.01 265.48-31.49 265.48-25 271.83-25 271.83-22.14 265.48-22.14 265.48-6.45Q265.48-5.69 265.76-5.04 266.04-4.39 266.53-3.91 267.02-3.42 267.68-3.14 268.33-2.86 269.09-2.86L269.09-2.86 271.83-2.86 271.83 0ZM324.75 0L321.74 0 321.74-18.31Q321.74-19.21 321.4-20.01 321.06-20.8 320.47-21.39 319.89-21.97 319.09-22.31 318.3-22.66 317.4-22.66L317.4-22.66 315.4-22.66Q314.49-22.66 313.7-22.31 312.91-21.97 312.32-21.39 311.73-20.8 311.39-20.01 311.05-19.21 311.05-18.31L311.05-18.31 311.05 0 308.05 0 308.05-35.01 311.05-35.01 311.05-22.9Q312.08-24.12 313.52-24.8 314.96-25.49 316.64-25.49L316.64-25.49 317.4-25.49Q318.91-25.49 320.25-24.91 321.6-24.34 322.6-23.34 323.6-22.34 324.17-21 324.75-19.65 324.75-18.14L324.75-18.14 324.75 0ZM378.15 0L377.15 0 375.49-2.49Q374.47-1.15 372.93-0.33 371.39 0.49 369.56 0.49L369.56 0.49 368.8 0.49Q367.29 0.49 365.95-0.09 364.6-0.66 363.6-1.66 362.6-2.66 362.03-4 361.46-5.35 361.46-6.86L361.46-6.86 361.46-7.1Q361.46-8.62 362.03-9.96 362.6-11.3 363.6-12.3 364.6-13.31 365.95-13.88 367.29-14.45 368.8-14.45L368.8-14.45 375.15-14.45 375.15-18.31Q375.15-19.21 374.81-20.01 374.47-20.8 373.88-21.39 373.3-21.97 372.5-22.31 371.71-22.66 370.81-22.66L370.81-22.66 369.05-22.66Q368.14-22.66 367.35-22.31 366.56-21.97 365.97-21.39 365.39-20.8 365.04-20.01 364.7-19.21 364.7-18.31L364.7-18.31 364.7-17.41 361.7-17.9 361.7-18.14Q361.7-19.65 362.27-21 362.85-22.34 363.85-23.34 364.85-24.34 366.19-24.91 367.53-25.49 369.05-25.49L369.05-25.49 370.81-25.49Q372.32-25.49 373.66-24.91 375-24.34 376.01-23.34 377.01-22.34 377.58-21 378.15-19.65 378.15-18.14L378.15-18.14 378.15 0ZM375.15-6.69L375.15-12.11 368.8-12.11Q367.9-12.11 367.11-11.77 366.31-11.43 365.73-10.83 365.14-10.23 364.8-9.44 364.46-8.64 364.46-7.74L364.46-7.74 364.46-6.69Q364.46-5.79 364.8-4.99 365.14-4.2 365.73-3.61 366.31-3.03 367.11-2.69 367.9-2.34 368.8-2.34L368.8-2.34 370.81-2.34Q371.71-2.34 372.5-2.69 373.3-3.03 373.88-3.61 374.47-4.2 374.81-4.99 375.15-5.79 375.15-6.69L375.15-6.69ZM431.56 0L428.56 0 428.56-18.31Q428.56-19.21 428.22-20.01 427.88-20.8 427.29-21.39 426.7-21.97 425.91-22.31 425.12-22.66 424.21-22.66L424.21-22.66 422.21-22.66Q421.31-22.66 420.52-22.31 419.72-21.97 419.14-21.39 418.55-20.8 418.21-20.01 417.87-19.21 417.87-18.31L417.87-18.31 417.87 0 414.86 0 414.86-25 415.86-25 417.5-22.46Q418.53-23.85 420.08-24.67 421.63-25.49 423.46-25.49L423.46-25.49 424.21-25.49Q425.73-25.49 427.07-24.91 428.41-24.34 429.41-23.34 430.41-22.34 430.99-21 431.56-19.65 431.56-18.14L431.56-18.14 431.56 0ZM527.17 0L526.17 0 524.51-2.49Q523.49-1.15 521.95-0.33 520.41 0.49 518.58 0.49L518.58 0.49 517.82 0.49Q516.31 0.49 514.97-0.09 513.62-0.66 512.62-1.66 511.62-2.66 511.05-4 510.47-5.35 510.47-6.86L510.47-6.86 510.47-7.1Q510.47-8.62 511.05-9.96 511.62-11.3 512.62-12.3 513.62-13.31 514.97-13.88 516.31-14.45 517.82-14.45L517.82-14.45 524.17-14.45 524.17-18.31Q524.17-19.21 523.83-20.01 523.49-20.8 522.9-21.39 522.31-21.97 521.52-22.31 520.73-22.66 519.82-22.66L519.82-22.66 518.07-22.66Q517.16-22.66 516.37-22.31 515.58-21.97 514.99-21.39 514.4-20.8 514.06-20.01 513.72-19.21 513.72-18.31L513.72-18.31 513.72-17.41 510.72-17.9 510.72-18.14Q510.72-19.65 511.29-21 511.87-22.34 512.87-23.34 513.87-24.34 515.21-24.91 516.55-25.49 518.07-25.49L518.07-25.49 519.82-25.49Q521.34-25.49 522.68-24.91 524.02-24.34 525.02-23.34 526.03-22.34 526.6-21 527.17-19.65 527.17-18.14L527.17-18.14 527.17 0ZM524.17-6.69L524.17-12.11 517.82-12.11Q516.92-12.11 516.13-11.77 515.33-11.43 514.75-10.83 514.16-10.23 513.82-9.44 513.48-8.64 513.48-7.74L513.48-7.74 513.48-6.69Q513.48-5.79 513.82-4.99 514.16-4.2 514.75-3.61 515.33-3.03 516.13-2.69 516.92-2.34 517.82-2.34L517.82-2.34 519.82-2.34Q520.73-2.34 521.52-2.69 522.31-3.03 522.9-3.61 523.49-4.2 523.83-4.99 524.17-5.79 524.17-6.69L524.17-6.69ZM622.78-6.86L622.78-6.86Q622.78-5.35 622.21-4 621.64-2.66 620.63-1.66 619.63-0.66 618.29-0.09 616.95 0.49 615.43 0.49L615.43 0.49 614.68 0.49Q612.99 0.49 611.55-0.2 610.11-0.88 609.09-2.1L609.09-2.1 609.09 10.01 606.08 10.01 606.08-25 607.08-25 608.72-22.46Q609.75-23.85 611.3-24.67 612.85-25.49 614.68-25.49L614.68-25.49 615.43-25.49Q616.95-25.49 618.29-24.91 619.63-24.34 620.63-23.34 621.64-22.34 622.21-21 622.78-19.65 622.78-18.14L622.78-18.14 622.78-6.86ZM619.78-6.69L619.78-18.31Q619.78-19.21 619.44-20.01 619.1-20.8 618.51-21.39 617.92-21.97 617.13-22.31 616.34-22.66 615.43-22.66L615.43-22.66 613.43-22.66Q612.53-22.66 611.74-22.31 610.94-21.97 610.36-21.39 609.77-20.8 609.43-20.01 609.09-19.21 609.09-18.31L609.09-18.31 609.09-6.69Q609.09-5.79 609.43-4.99 609.77-4.2 610.36-3.61 610.94-3.03 611.74-2.69 612.53-2.34 613.43-2.34L613.43-2.34 615.43-2.34Q616.34-2.34 617.13-2.69 617.92-3.03 618.51-3.61 619.1-4.2 619.44-4.99 619.78-5.79 619.78-6.69L619.78-6.69ZM676.19 0L675.19 0 673.53-2.49Q672.5-1.15 670.97-0.33 669.43 0.49 667.6 0.49L667.6 0.49 666.84 0.49Q665.33 0.49 663.98-0.09 662.64-0.66 661.64-1.66 660.64-2.66 660.07-4 659.49-5.35 659.49-6.86L659.49-6.86 659.49-7.1Q659.49-8.62 660.07-9.96 660.64-11.3 661.64-12.3 662.64-13.31 663.98-13.88 665.33-14.45 666.84-14.45L666.84-14.45 673.19-14.45 673.19-18.31Q673.19-19.21 672.85-20.01 672.5-20.8 671.92-21.39 671.33-21.97 670.54-22.31 669.75-22.66 668.84-22.66L668.84-22.66 667.08-22.66Q666.18-22.66 665.39-22.31 664.59-21.97 664.01-21.39 663.42-20.8 663.08-20.01 662.74-19.21 662.74-18.31L662.74-18.31 662.74-17.41 659.74-17.9 659.74-18.14Q659.74-19.65 660.31-21 660.88-22.34 661.88-23.34 662.89-24.34 664.23-24.91 665.57-25.49 667.08-25.49L667.08-25.49 668.84-25.49Q670.36-25.49 671.7-24.91 673.04-24.34 674.04-23.34 675.04-22.34 675.62-21 676.19-19.65 676.19-18.14L676.19-18.14 676.19 0ZM673.19-6.69L673.19-12.11 666.84-12.11Q665.94-12.11 665.14-11.77 664.35-11.43 663.76-10.83 663.18-10.23 662.84-9.44 662.5-8.64 662.5-7.74L662.5-7.74 662.5-6.69Q662.5-5.79 662.84-4.99 663.18-4.2 663.76-3.61 664.35-3.03 665.14-2.69 665.94-2.34 666.84-2.34L666.84-2.34 668.84-2.34Q669.75-2.34 670.54-2.69 671.33-3.03 671.92-3.61 672.5-4.2 672.85-4.99 673.19-5.79 673.19-6.69L673.19-6.69ZM729.6 0L726.6 0 726.6-18.31Q726.6-19.21 726.25-20.01 725.91-20.8 725.33-21.39 724.74-21.97 723.95-22.31 723.15-22.66 722.25-22.66L722.25-22.66 720.25-22.66Q719.35-22.66 718.55-22.31 717.76-21.97 717.17-21.39 716.59-20.8 716.25-20.01 715.9-19.21 715.9-18.31L715.9-18.31 715.9 0 712.9 0 712.9-25 713.9-25 715.54-22.46Q716.56-23.85 718.11-24.67 719.66-25.49 721.49-25.49L721.49-25.49 722.25-25.49Q723.76-25.49 725.11-24.91 726.45-24.34 727.45-23.34 728.45-22.34 729.03-21 729.6-19.65 729.6-18.14L729.6-18.14 729.6 0ZM783.01 0L782.01 0 780.35-2.54Q779.32-1.15 777.78-0.33 776.25 0.49 774.41 0.49L774.41 0.49 773.66 0.49Q772.14 0.49 770.8-0.09 769.46-0.66 768.46-1.66 767.46-2.66 766.88-4 766.31-5.35 766.31-6.86L766.31-6.86 766.31-18.14Q766.31-19.65 766.88-21 767.46-22.34 768.46-23.34 769.46-24.34 770.8-24.91 772.14-25.49 773.66-25.49L773.66-25.49 774.41-25.49Q776.1-25.49 777.54-24.8 778.98-24.12 780-22.9L780-22.9 780-35.01 783.01-35.01 783.01 0ZM780-6.69L780-18.31Q780-19.21 779.66-20.01 779.32-20.8 778.74-21.39 778.15-21.97 777.36-22.31 776.56-22.66 775.66-22.66L775.66-22.66 773.66-22.66Q772.75-22.66 771.96-22.31 771.17-21.97 770.58-21.39 770-20.8 769.65-20.01 769.31-19.21 769.31-18.31L769.31-18.31 769.31-6.69Q769.31-5.79 769.65-4.99 770-4.2 770.58-3.61 771.17-3.03 771.96-2.69 772.75-2.34 773.66-2.34L773.66-2.34 775.66-2.34Q776.56-2.34 777.36-2.69 778.15-3.03 778.74-3.61 779.32-4.2 779.66-4.99 780-5.79 780-6.69L780-6.69ZM836.42 0L835.41 0 833.75-2.49Q832.73-1.15 831.19-0.33 829.65 0.49 827.82 0.49L827.82 0.49 827.07 0.49Q825.55 0.49 824.21-0.09 822.87-0.66 821.87-1.66 820.86-2.66 820.29-4 819.72-5.35 819.72-6.86L819.72-6.86 819.72-7.1Q819.72-8.62 820.29-9.96 820.86-11.3 821.87-12.3 822.87-13.31 824.21-13.88 825.55-14.45 827.07-14.45L827.07-14.45 833.41-14.45 833.41-18.31Q833.41-19.21 833.07-20.01 832.73-20.8 832.14-21.39 831.56-21.97 830.76-22.31 829.97-22.66 829.07-22.66L829.07-22.66 827.31-22.66Q826.41-22.66 825.61-22.31 824.82-21.97 824.23-21.39 823.65-20.8 823.31-20.01 822.96-19.21 822.96-18.31L822.96-18.31 822.96-17.41 819.96-17.9 819.96-18.14Q819.96-19.65 820.53-21 821.11-22.34 822.11-23.34 823.11-24.34 824.45-24.91 825.8-25.49 827.31-25.49L827.31-25.49 829.07-25.49Q830.58-25.49 831.92-24.91 833.27-24.34 834.27-23.34 835.27-22.34 835.84-21 836.42-19.65 836.42-18.14L836.42-18.14 836.42 0ZM833.41-6.69L833.41-12.11 827.07-12.11Q826.16-12.11 825.37-11.77 824.58-11.43 823.99-10.83 823.4-10.23 823.06-9.44 822.72-8.64 822.72-7.74L822.72-7.74 822.72-6.69Q822.72-5.79 823.06-4.99 823.4-4.2 823.99-3.61 824.58-3.03 825.37-2.69 826.16-2.34 827.07-2.34L827.07-2.34 829.07-2.34Q829.97-2.34 830.76-2.69 831.56-3.03 832.14-3.61 832.73-4.2 833.07-4.99 833.41-5.79 833.41-6.69L833.41-6.69Z" opacity="1" transform="matrix(1,0,0,1,0,0)" fill="#dedede" class="slogan-text-1" data-fill-palette-color="secondary" id="text-1"></path></svg></g></svg></g></svg></g></svg></g><g></g></svg></g><defs></defs></svg><rect width="395.5199999999999" height="85.88348391560974" fill="none" stroke="none" visibility="hidden"></rect></g></svg></g></svg>